<svg id="Capa_1" enable-background="new 0 0 512 512" height="512" viewBox="0 0 512 512" width="512" xmlns="http://www.w3.org/2000/svg"><g><g><g><g><g><path d="m225.918 105.104c-94.033 0-170.542 75.031-172.923 168.49-.084 3.197.549 214.211.549 214.211l74.992-66.745c110.047 78.628 273.297-6.432 270.361-142.979.002-95.53-77.444-172.977-172.979-172.977z" fill="#9bb6f1"/></g><g><path d="m398.897 278.081c0-4.543-.177-9.045-.521-13.5-10.376 126.326-157.333 210.93-264.353 120.317l-58.414 52.594c-.181-62.629-.458-161.715-.401-163.898 2.287-89.748 72.935-162.49 161.813-168.125-97.618-6.632-181.936 70.797-184.025 168.125-.084 3.197.549 221.216.549 221.216l74.992-73.749c110.045 78.627 273.296-6.433 270.36-142.98z" fill="#6990eb"/></g><g><path d="m361.078 8.404c-22.65-.23-43.018 7.87-60.38 20.794-72.618 54.955-32.082 176.39 60.383 175.29 129.303-3.288 129.287-192.813-.003-196.084z" fill="#fbf2e2"/></g><g><path d="m377.18 188.389c-83.63.995-124.771-98.242-78.146-157.876-70.295 55.546-29.695 175.067 62.047 173.975 34.951-.889 60.448-15.388 76.502-36.135-15.321 11.828-35.452 19.402-60.403 20.036z" fill="#f7e0ba"/></g><g><g><g><path d="m138.893 173.192-9.738-11.41c4.11-3.507 8.63-6.765 12.51-9.488l8.619 12.277c-3.594 2.523-7.757 5.519-11.391 8.621z" fill="#fff"/></g><g><path d="m162.314 157.358-6.971-13.281c5.122-2.688 9.802-4.866 14.305-6.656l5.543 13.938c-4.011 1.595-8.223 3.557-12.877 5.999z" fill="#fff"/></g></g></g><g><path d="m256.318 286.561-67.466-42.957-52.822 89.503 60.288-26.462 60.322 42.661 59.39-97.983z" fill="#d3e0ef"/></g><g><path d="m193.959 277.375 13.093-22.183-18.2-11.588-52.822 89.503 60.288-26.462 60.322 42.661 11.561-19.074z" fill="#9bb6f1"/></g><g><circle cx="361.078" cy="106.447" fill="#ffc277" r="67.404"/></g><g><path d="m377.573 157.356c-37.226 0-67.404-30.178-67.404-67.404 0-14.4 4.53-27.735 12.223-38.687-17.36 12.194-28.718 32.355-28.718 55.181 0 37.226 30.178 67.404 67.404 67.404 22.826 0 42.988-11.357 55.181-28.718-10.951 7.694-24.286 12.224-38.686 12.224z" fill="#ff905b"/></g></g></g></g><g><path d="m362.577 370.986 12.415 8.492c2.913-4.259 5.675-8.695 8.208-13.185l-13.099-7.392c-2.323 4.115-4.854 8.181-7.524 12.085z"/><path d="m225.776 443.228c-35.432.102-69.441-11.344-98.02-31.977l-67.588 65.301v-70.329h-15.042v105.777l84.363-81.509c28.813 18.194 61.97 27.779 96.287 27.779 54.341 0 105.288-24.128 139.776-66.198l-11.632-9.536c-31.62 38.57-78.327 60.692-128.144 60.692z"/><path d="m466.874 105.837c0-58.359-47.479-105.837-105.837-105.837-17.82 0-35.442 4.514-50.962 13.057l7.253 13.177c13.304-7.322 28.418-11.192 43.709-11.192 50.065 0 90.795 40.73 90.795 90.795 0 50.064-40.73 90.794-90.795 90.794s-90.795-40.73-90.795-90.794c0-28.115 12.714-54.19 34.883-71.541l-9.272-11.845c-24.134 18.889-38.649 46.656-40.457 76.945-9.753-1.607-19.68-2.426-29.62-2.426-99.61 0-180.65 81.039-180.65 180.65v113.562h15.042v-113.563c0-91.317 74.291-165.608 165.608-165.608 10.017 0 20.013.91 29.799 2.685 4.516 54.228 50.088 96.976 105.463 96.976 5.489 0 10.882-.421 16.148-1.23 9.418 21.159 14.2 43.727 14.2 67.177 0 24.128-5.071 47.386-15.071 69.128l13.665 6.285c10.914-23.727 16.448-49.1 16.448-75.413 0-24.586-4.823-48.29-14.327-70.601 43.246-13.303 74.773-53.628 74.773-101.181z"/><path d="m194.948 315.188 63.607 44.984 79.242-130.733-81.662 48.191-70.326-44.779-68.775 116.533zm-4.093-61.291 64.982 41.377 38.093-22.481-39.869 65.777-57.371-40.574-42.998 18.874z"/><path d="m361.037 180.948c41.418 0 75.113-33.695 75.113-75.112 0-41.418-33.695-75.113-75.113-75.113s-75.113 33.695-75.113 75.113c0 41.417 33.695 75.112 75.113 75.112zm0-135.182c33.123 0 60.071 26.948 60.071 60.071s-26.948 60.07-60.071 60.07-60.071-26.947-60.071-60.07 26.948-60.071 60.071-60.071z"/><path d="m330.908 83.547h15.042v15.265h-15.042z"/><path d="m376.19 83.547h15.042v15.265h-15.042z"/><path d="m394.442 127.378-6.739-13.448-26.693 13.379-26.739-13.381-6.731 13.452 33.476 16.751z"/></g></g></svg>